<?xml version="1.0" standalone="no"?>
<!DOCTYPE svg PUBLIC "-//W3C//DTD SVG 20010904//EN"
 "http://www.w3.org/TR/2001/REC-SVG-20010904/DTD/svg10.dtd">
<svg version="1.0" xmlns="http://www.w3.org/2000/svg"
 width="200.000000pt" height="200.000000pt" viewBox="0 0 200.000000 200.000000"
 preserveAspectRatio="xMidYMid meet">
<metadata>
Created by potrace 1.16, written by Peter Selinger 2001-2019
</metadata>
<g transform="translate(0.000000,200.000000) scale(0.100000,-0.100000)"
fill="#000000" stroke="none">
<path d="M560 1780 c-44 -11 -105 -75 -119 -126 -7 -25 -11 -191 -11 -464 l0
-425 -88 3 c-65 2 -91 0 -100 -10 -8 -10 -9 -83 -5 -252 6 -234 7 -239 31
-267 50 -60 34 -59 741 -59 l647 0 26 27 c61 65 58 33 58 733 l0 640 39 0 c48
0 55 9 46 61 -9 51 -52 101 -108 125 -39 18 -80 19 -582 21 -297 1 -556 -2
-575 -7z m1102 -51 c54 -12 108 -53 108 -83 0 -14 -40 -16 -369 -16 -310 0
-370 -2 -381 -15 -6 -8 -9 -19 -5 -25 4 -6 119 -10 341 -10 l334 0 0 -632 0
-633 -23 -40 -23 -40 -637 -3 c-681 -2 -681 -2 -705 46 -5 9 -13 113 -17 230
l-7 212 76 0 76 0 0 -208 c0 -142 -4 -212 -11 -219 -14 -14 -5 -43 14 -43 8 0
21 8 30 18 15 16 17 86 19 692 3 654 4 676 23 709 11 18 36 42 55 52 33 18 66
19 542 19 338 0 525 -4 560 -11z"/>
<path d="M977 1323 c-4 -3 -7 -10 -7 -15 0 -4 155 -8 345 -8 300 0 345 2 345
15 0 13 -44 15 -338 15 -186 0 -342 -3 -345 -7z"/>
<path d="M557 1163 c-4 -3 -7 -82 -7 -175 l0 -168 185 0 185 0 0 146 c0 112
-3 145 -12 142 -9 -3 -14 -41 -16 -131 l-3 -127 -154 0 -155 0 0 145 0 145
140 0 c118 0 140 2 140 15 0 13 -23 15 -148 15 -82 0 -152 -3 -155 -7z"/>
<path d="M1017 1123 c-4 -3 -7 -10 -7 -15 0 -4 146 -8 325 -8 282 0 325 2 325
15 0 13 -42 15 -318 15 -175 0 -322 -3 -325 -7z"/>
<path d="M1017 983 c-4 -3 -7 -10 -7 -15 0 -4 146 -8 325 -8 282 0 325 2 325
15 0 13 -42 15 -318 15 -175 0 -322 -3 -325 -7z"/>
<path d="M1017 843 c-4 -3 -7 -10 -7 -15 0 -4 146 -8 325 -8 282 0 325 2 325
15 0 13 -42 15 -318 15 -175 0 -322 -3 -325 -7z"/>
<path d="M557 683 c-4 -3 -7 -10 -7 -15 0 -4 146 -8 325 -8 282 0 325 2 325
15 0 13 -42 15 -318 15 -175 0 -322 -3 -325 -7z"/>
<path d="M1277 683 c-4 -3 -7 -73 -7 -155 0 -125 2 -148 15 -148 13 0 15 22
15 140 l0 140 155 0 155 0 0 -145 0 -144 -127 -3 c-90 -2 -128 -7 -131 -15 -3
-10 30 -13 142 -13 l146 0 0 175 0 175 -178 0 c-98 0 -182 -3 -185 -7z"/>
<path d="M557 543 c-4 -3 -7 -10 -7 -15 0 -4 146 -8 325 -8 282 0 325 2 325
15 0 13 -42 15 -318 15 -175 0 -322 -3 -325 -7z"/>
<path d="M557 403 c-4 -3 -7 -10 -7 -15 0 -4 146 -8 325 -8 282 0 325 2 325
15 0 13 -42 15 -318 15 -175 0 -322 -3 -325 -7z"/>
</g>
</svg>
